<?xml version="1.0" encoding="iso-8859-1"?>
<!-- Uploaded to: SVG Repo, www.svgrepo.com, Generator: SVG Repo Mixer Tools -->
<!DOCTYPE svg PUBLIC "-//W3C//DTD SVG 1.1//EN" "http://www.w3.org/Graphics/SVG/1.1/DTD/svg11.dtd">
<svg fill="#000000" version="1.1" id="Capa_1" xmlns="http://www.w3.org/2000/svg" xmlns:xlink="http://www.w3.org/1999/xlink" 
	 viewBox="0 0 482.139 482.139" xml:space="preserve">
<g>
	<path d="M302.614,0H108.967C80.676,0,57.651,23.041,57.651,51.315v379.509c0,28.305,23.024,51.315,51.316,51.315h264.221
		c28.274,0,51.3-23.01,51.3-51.315V121.449L302.614,0z M373.188,450.713H108.967c-10.955,0-19.875-8.92-19.875-19.889V51.315
		c0-10.938,8.92-19.858,19.875-19.858l181.89-0.189v67.234c0,19.637,15.934,35.586,35.585,35.586l65.863-0.189l0.741,296.925
		C393.046,441.793,384.141,450.713,373.188,450.713z"/>
	<path d="M192.78,199.384l-39.866,130.464h30.575l9.291-33.49h37.36l10.063,33.49h31.741l-40.45-130.464H192.78z M197.043,274.293
		l7.738-27.675c2.135-7.55,4.065-17.417,6.003-25.17h0.387c1.939,7.753,4.254,17.431,6.58,25.17l8.131,27.675H197.043z"/>
	<rect x="289.438" y="199.384" width="29.612" height="130.464"/>
</g>
</svg>