<?xml version="1.0" encoding="utf-8"?>
<!-- Uploaded to: SVG Repo, www.svgrepo.com, Generator: SVG Repo Mixer Tools -->
<svg fill="#000000" width="800px" height="800px" viewBox="0 0 32 32" xmlns="http://www.w3.org/2000/svg">
  <g id="Group_32" data-name="Group 32" transform="translate(-166 -321.048)">
    <path id="Path_313" data-name="Path 313" d="M178,345.048h16a4,4,0,0,0,4-4v-16a4,4,0,0,0-4-4H178a4,4,0,0,0-4,4v20Zm16-4H178v-16h16Z"/>
    <path id="Path_314" data-name="Path 314" d="M186,349.048H170v-20a4,4,0,0,0-4,4v16a4,4,0,0,0,4,4h16a4,4,0,0,0,4-4"/>
  </g>
</svg>