<?xml version="1.0" encoding="utf-8"?><!-- Uploaded to: SVG Repo, www.svgrepo.com, Generator: SVG Repo Mixer Tools -->
<svg width="800px" height="800px" viewBox="0 0 24 24" fill="none" xmlns="http://www.w3.org/2000/svg">
<path d="M14 3.5V11V4.5C14 3.67157 14.6716 3 15.5 3C16.3284 3 17 3.67157 17 4.5V11V7.5C17 6.67157 17.6716 6 18.5 6C19.3284 6 20 6.67157 20 7.5V16C20 19.3137 17.3137 22 14 22H12.8727C11.3483 22 9.88112 21.4198 8.76904 20.3772L3.81045 15.7285C3.09365 15.0565 3.0754 13.9246 3.77016 13.2298C4.44939 12.5506 5.55063 12.5506 6.22985 13.2298L8.00001 15V6.5C8.00001 5.67157 8.67158 5 9.50001 5C10.3284 5 11 5.67157 11 6.5V11V3.5C11 2.67157 11.6716 2 12.5 2C13.3284 2 14 2.67157 14 3.5Z" stroke="#000000" stroke-width="2" stroke-linecap="round" stroke-linejoin="round"/>
</svg>