<?xml version='1.0' encoding='iso-8859-1'?>
<svg version="1.1" xmlns="http://www.w3.org/2000/svg" viewBox="0 0 470 470" xmlns:xlink="http://www.w3.org/1999/xlink" enable-background="new 0 0 470 470">
  <g>
    <path d="m382.526,321.423c0.158-43.563-0.004-183.417-0.006-184.805 0.08-19.952-15.117-35.643-34.598-35.721h-0.146c-7.668,0-14.787,2.445-20.612,6.594v-31.905c0.038-9.501-3.563-18.438-10.141-25.163-6.623-6.771-15.505-10.521-25.011-10.559h-0.146c-7.59,0-14.638,2.421-20.416,6.535v-10.679c0.038-9.503-3.626-18.452-10.318-25.199-6.693-6.746-15.612-10.482-25.115-10.521h-0.146c-19.703,0-35.797,15.896-35.875,35.464v10.5c-5.748-4.098-12.751-6.522-20.294-6.552h-0.145c-19.817,0-36.003,15.896-36.082,35.465v78.801c-5.785-4.126-12.844-6.568-20.447-6.599h-0.146c-19.537,0-35.496,15.896-35.575,35.479 0.001,0.977 0.167,98.213 0,139.768-0.001,0.418 0.034,0.832 0.104,1.239 0.653,80.857 66.922,146.435 148.285,146.435 39.438,0 76.399-15.242 104.077-42.917 27.678-27.676 42.921-64.637 42.921-104.074 0-0.545-0.057-1.075-0.168-1.586zm-90.575-266.559c5.459,0.022 10.555,2.17 14.349,6.048 3.804,3.889 5.887,9.079 5.864,14.644v150.955l-40.714-.13v-151.021c0.046-11.301 9.205-20.496 20.501-20.496zm-56.255,400.136c-73.496,0-133.29-59.504-133.29-132.644 0-0.4-0.032-0.792-0.094-1.175 0.16-42.238-0.003-137.68-0.004-138.606 0.045-11.301 9.275-20.496 20.66-20.496 11.263,0.045 20.463,9.237 20.508,20.461v115.851c0,4.13 3.339,7.483 7.47,7.5 20.854,0.084 40.343,8.297 54.877,23.127 14.512,14.808 22.458,34.517 22.374,55.497-0.017,4.142 3.328,7.514 7.47,7.53 4.159,0 7.514-3.338 7.53-7.47 0.101-24.953-9.368-48.412-26.661-66.057-15.613-15.93-36.007-25.47-58.06-27.303v-216.308c0.045-11.11 9.699-20.496 21.166-20.496 11.178,0.045 20.309,9.236 20.354,20.458v98.76c0,4.142 3.358,7.5 7.5,7.5s7.5-3.358 7.5-7.5v-138.135c0.045-11.301 9.41-20.494 20.96-20.494 5.497,0.022 10.655,2.183 14.526,6.085s5.99,9.078 5.968,14.604v190.643l-41.455-.132v-22.57c0-4.142-3.358-7.5-7.5-7.5s-7.5,3.358-7.5,7.5v22.524l-7.476-.024c-4.155,0-7.511,3.342-7.524,7.476-0.013,4.142 3.334,7.511 7.476,7.524l126.35,.402c0.277,0.031 0.558,0.05 0.843,0.05 0.273,0 0.543-0.017 0.809-0.045l14.167,.045c4.155,0 7.511-3.342 7.524-7.476 0.013-4.142-3.334-7.511-7.476-7.524l-7.524-.024v-90.167c0.045-11.301 9.292-20.495 20.697-20.495 11.07,0.044 19.705,9.12 19.659,20.7 0.001,1.443 0.167,144.824 0,186.381-0.002,0.54 0.054,1.074 0.165,1.594-0.838,72.066-59.725,130.429-131.989,130.429z"/>
  </g>
</svg>
